<?xml version="1.0" encoding="UTF-8" standalone="no"?>
<!-- Created with Inkscape (http://www.inkscape.org/) -->

<svg
   xmlns:dc="http://purl.org/dc/elements/1.1/"
   xmlns:cc="http://creativecommons.org/ns#"
   xmlns:rdf="http://www.w3.org/1999/02/22-rdf-syntax-ns#"
   xmlns:svg="http://www.w3.org/2000/svg"
   xmlns="http://www.w3.org/2000/svg"
   xmlns:sodipodi="http://sodipodi.sourceforge.net/DTD/sodipodi-0.dtd"
   xmlns:inkscape="http://www.inkscape.org/namespaces/inkscape"
   width="300"
   height="300"
   viewBox="0 0 300 300"
   id="svg4660"
   version="1.1"
   inkscape:version="0.91 r13725"
   sodipodi:docname="FlowerPotIcon.svg">
  <defs
     id="defs4662">
    <clipPath
       clipPathUnits="userSpaceOnUse"
       id="clipPath4208">
      <path
         d="M 0,780 1096,780 1096,0 0,0 0,780 Z"
         id="path4210"
         inkscape:connector-curvature="0" />
    </clipPath>
    <clipPath
       clipPathUnits="userSpaceOnUse"
       id="clipPath4264">
      <path
         d="m 501.329,172.325 12.033,-84.227 82.691,0 12.033,84.227 -106.757,0 z"
         id="path4266"
         inkscape:connector-curvature="0" />
    </clipPath>
  </defs>
  <sodipodi:namedview
     id="base"
     pagecolor="#ffffff"
     bordercolor="#666666"
     borderopacity="1.0"
     inkscape:pageopacity="0.0"
     inkscape:pageshadow="2"
     inkscape:zoom="1"
     inkscape:cx="99.931054"
     inkscape:cy="115.87137"
     inkscape:document-units="px"
     inkscape:current-layer="layer1"
     showgrid="false"
     fit-margin-top="20"
     fit-margin-left="20"
     fit-margin-right="20"
     fit-margin-bottom="20"
     units="px"
     inkscape:window-width="1365"
     inkscape:window-height="705"
     inkscape:window-x="-8"
     inkscape:window-y="32"
     inkscape:window-maximized="1" />
  <metadata
     id="metadata4665">
    <rdf:RDF>
      <cc:Work
         rdf:about="">
        <dc:format>image/svg+xml</dc:format>
        <dc:type
           rdf:resource="http://purl.org/dc/dcmitype/StillImage" />
        <dc:title></dc:title>
      </cc:Work>
    </rdf:RDF>
  </metadata>
  <g
     inkscape:label="Layer 1"
     inkscape:groupmode="layer"
     id="layer1"
     transform="translate(-82.568948,-193.42188)">
    <g
       id="g4204"
       transform="matrix(0.76769834,0,0,-0.82932343,-193.08455,540.44389)">
      <g
         id="g4206"
         clip-path="url(#clipPath4208)">
        <path
           d="m 559.267,180.554 -9.628,0 0,82.884 9.628,0 0,-82.884 z"
           style="fill:#849f35;fill-opacity:1;fill-rule:nonzero;stroke:none"
           id="path4212"
           inkscape:connector-curvature="0" />
        <g
           id="g4214"
           transform="translate(541.3745,231.9738)">
          <path
             d="m 0,0 c 12.956,-12.956 12.542,-34.383 12.542,-34.383 0,0 -21.427,-0.414 -34.383,12.542 -12.961,12.961 -12.542,34.388 -12.542,34.388 0,0 21.422,0.409 34.383,-12.547"
             style="fill:#849f35;fill-opacity:1;fill-rule:nonzero;stroke:none"
             id="path4216"
             inkscape:connector-curvature="0" />
        </g>
        <g
           id="g4218"
           transform="translate(567.5311,231.9738)">
          <path
             d="m 0,0 c -12.956,-12.956 -12.547,-34.383 -12.547,-34.383 0,0 21.427,-0.414 34.383,12.542 C 34.797,-8.88 34.383,12.547 34.383,12.547 34.383,12.547 12.956,12.956 0,0"
             style="fill:#849f35;fill-opacity:1;fill-rule:nonzero;stroke:none"
             id="path4220"
             inkscape:connector-curvature="0" />
        </g>
        <g
           id="g4222"
           transform="translate(569.6465,245.7431)">
          <path
             d="M 0,0 C -5.999,-0.719 -11.957,2.087 -15.196,7.24 -18.588,1.852 -25.082,-1.142 -31.68,0.207 l -0.014,0 c -7.038,1.443 -12.009,7.366 -12.55,14.188 -5.408,-3.127 -12.394,-2.845 -17.61,1.25 -0.818,0.639 -1.577,1.373 -2.252,2.158 -4.019,4.701 -4.792,11.085 -2.526,16.416 -6.135,-0.254 -12.113,3.112 -14.9,9.012 -0.724,1.528 -1.201,3.182 -1.406,4.861 -0.665,5.556 1.643,10.788 5.679,14.089 -5.757,2.712 -9.379,8.711 -8.993,15.16 0.395,7.066 5.528,13.102 12.58,14.531 -3.928,5.204 -4.288,12.439 -0.639,18.052 3.781,5.867 10.983,8.504 17.605,6.582 -1.126,6.769 2.289,13.731 8.805,16.815 l 0.016,0.005 c 6.072,2.863 13.06,1.518 17.636,-2.868 1.864,5.604 6.819,9.919 13.072,10.672 1.278,0.155 2.587,0.155 3.864,-0.005 6.203,-0.785 11.108,-5.068 12.972,-10.62 4.506,4.354 11.353,5.721 17.338,3.056 6.595,-2.915 10.304,-9.924 9.171,-16.905 6.342,1.876 13.182,-0.451 17.086,-5.721 4.078,-5.477 4.233,-13.163 -0.035,-18.856 6.487,-1.297 11.698,-6.624 12.535,-13.558 l 0.003,-0.014 c 0.002,-0.037 0.007,-0.07 0.011,-0.103 0.005,-0.033 0.007,-0.066 0.012,-0.104 l 0,-0.014 C 56.615,71.38 52.84,64.982 46.881,62.162 51.265,58.575 53.561,52.731 52.346,46.799 52.069,45.426 51.601,44.082 50.966,42.836 48.091,37.143 42.225,33.96 36.247,34.2 38.87,28.042 37.35,20.642 31.993,16.059 31.495,15.631 30.961,15.231 30.416,14.869 25.263,11.475 18.849,11.494 13.849,14.38 13.311,7.644 8.469,1.909 1.803,0.324 1.201,0.179 0.602,0.075 0,0"
             style="fill:#a34e9f;fill-opacity:1;fill-rule:nonzero;stroke:none"
             id="path4224"
             inkscape:connector-curvature="0" />
        </g>
        <g
           id="g4226"
           transform="translate(609.8356,310.1425)">
          <path
             d="m 0,0 c -0.176,-2.341 -1.041,-4.536 -2.546,-6.365 -1.49,-1.801 -3.568,-3.15 -5.878,-3.766 l -1.69,-0.451 1.086,-1.283 c 1.544,-1.815 2.505,-4.151 2.689,-6.582 0.192,-2.425 -0.412,-4.922 -1.719,-7.023 -1.271,-2.087 -3.283,-3.827 -5.589,-4.781 -2.32,-0.983 -4.969,-1.166 -7.439,-0.569 l -0.51,0.122 0.105,-0.498 c 0.567,-2.736 0.172,-5.693 -1.184,-8.17 -1.314,-2.492 -3.536,-4.485 -6.147,-5.571 -2.167,-0.879 -4.553,-1.119 -6.84,-0.701 -2.275,0.409 -4.438,1.477 -6.114,3.065 l -0.298,0.283 -0.127,-0.395 c -0.773,-2.445 -2.332,-4.612 -4.37,-6.121 -2.056,-1.5 -4.553,-2.304 -7.072,-2.299 -2.48,-0.009 -4.962,0.785 -6.948,2.228 -1.998,1.434 -3.51,3.493 -4.264,5.787 l -0.47,1.42 -1.112,-1.076 c -1.74,-1.669 -4.001,-2.755 -6.347,-3.089 -2.364,-0.339 -4.736,0.094 -6.863,1.185 -0.461,0.235 -1.016,0.583 -1.436,0.893 -0.569,0.418 -0.929,0.728 -1.342,1.147 -0.818,0.813 -1.507,1.758 -2.034,2.783 -1.055,2.05 -1.459,4.419 -1.147,6.685 l 0.332,2.397 -2.332,-0.728 c -2.188,-0.677 -4.576,-0.644 -6.751,0.047 -2.181,0.691 -4.122,2.082 -5.479,3.939 -0.686,0.945 -1.213,1.895 -1.619,3.075 -0.339,0.996 -0.567,2.204 -0.585,3.337 -0.04,2.304 0.636,4.626 1.939,6.563 l 1.21,1.8 -2.078,0.306 c -2.306,0.353 -4.508,1.453 -6.198,3.112 -1.692,1.655 -2.844,3.841 -3.253,6.234 -0.414,2.331 -0.061,4.856 1.013,7.032 1.06,2.186 2.832,4.034 5.004,5.195 l 1.044,0.555 -0.929,0.677 c -1.991,1.448 -3.471,3.582 -4.212,5.951 -0.754,2.37 -0.733,4.974 0.101,7.348 0.795,2.355 2.37,4.457 4.412,5.9 2.055,1.434 4.56,2.19 7.054,2.139 l 0.907,-0.019 -0.38,0.827 c -1.079,2.346 -1.35,5.044 -0.788,7.555 0.557,2.501 1.925,4.823 3.907,6.44 l 0.019,0.024 c 1.835,1.523 4.122,2.468 6.473,2.675 2.348,0.216 4.748,-0.301 6.781,-1.448 l 1.265,-0.72 0.108,1.491 c 0.171,2.411 1.123,4.743 2.649,6.581 1.532,1.838 3.636,3.14 5.925,3.733 2.266,0.573 4.746,0.437 6.909,-0.395 2.174,-0.842 4.061,-2.379 5.331,-4.311 l 1.245,-1.885 1.19,1.96 c 1.201,1.975 3.039,3.545 5.152,4.433 2.125,0.884 4.464,1.105 6.732,0.597 2.191,-0.479 4.264,-1.697 5.756,-3.399 1.512,-1.692 2.466,-3.859 2.689,-6.101 l 0.268,-2.713 2.344,1.439 c 1.922,1.18 4.217,1.72 6.454,1.537 2.252,-0.179 4.389,-1.048 6.13,-2.534 1.669,-1.41 2.917,-3.418 3.468,-5.566 0.552,-2.158 0.406,-4.475 -0.412,-6.549 l -1.095,-2.764 2.968,0.216 c 2.226,0.16 4.509,-0.409 6.403,-1.603 1.907,-1.161 3.43,-2.966 4.271,-5.016 0.922,-2.157 1.117,-4.433 0.614,-6.656 -0.496,-2.205 -1.719,-4.236 -3.411,-5.736 l -2.05,-1.819 2.478,-1.072 C -4.569,10.046 -2.752,8.514 -1.589,6.558 -1.004,5.59 -0.564,4.527 -0.282,3.418 -0.15,2.882 -0.056,2.247 -0.009,1.763 0.035,1.058 0.045,0.574 0,0 M 2.771,4.09 C 2.482,5.528 1.956,6.929 1.22,8.208 c -1.051,1.876 -2.567,3.469 -4.353,4.687 1.419,1.683 2.442,3.704 2.959,5.848 0.726,2.901 0.442,6.121 -0.677,8.81 -1.121,2.834 -3.133,5.26 -5.7,6.868 -1.836,1.147 -3.93,1.847 -6.081,2.083 0.409,2.101 0.376,4.292 -0.164,6.36 -0.745,2.919 -2.417,5.547 -4.772,7.479 -2.263,1.876 -5.213,3.051 -8.177,3.23 -2.177,0.146 -4.384,-0.235 -6.398,-1.067 -0.611,2.073 -1.681,4.01 -3.138,5.599 -1.996,2.19 -4.661,3.723 -7.585,4.32 -2.837,0.602 -5.947,0.282 -8.608,-0.935 -2.054,-0.927 -3.866,-2.36 -5.256,-4.123 -1.52,1.622 -3.41,2.886 -5.495,3.629 -2.746,0.982 -5.724,1.034 -8.495,0.23 -2.736,-0.818 -5.213,-2.491 -6.946,-4.738 -1.466,-1.904 -2.362,-4.18 -2.684,-6.535 -2.101,0.846 -4.391,1.175 -6.617,0.898 -2.644,-0.32 -5.166,-1.462 -7.143,-3.206 l -0.037,-0.028 -0.024,-0.019 c -2.127,-1.895 -3.662,-4.452 -4.229,-7.24 -0.538,-2.51 -0.27,-5.152 0.675,-7.535 -5.202,-0.264 -10.058,-3.813 -11.731,-8.768 -0.903,-2.562 -0.997,-5.434 -0.24,-8.062 0.651,-2.308 1.988,-4.396 3.747,-6.041 -2.095,-1.222 -3.883,-3.004 -5.04,-5.166 -1.333,-2.468 -1.878,-5.35 -1.495,-8.185 0.355,-2.778 1.636,-5.5 3.606,-7.573 1.523,-1.617 3.462,-2.849 5.585,-3.578 -1.084,-1.993 -1.702,-4.254 -1.695,-6.548 0.009,-1.481 0.216,-2.877 0.693,-4.358 0.416,-1.297 1.103,-2.698 1.956,-3.864 1.718,-2.374 4.217,-4.189 7.014,-5.091 2.108,-0.696 4.377,-0.856 6.563,-0.504 0.068,-2.2 0.637,-4.376 1.701,-6.299 0.708,-1.283 1.615,-2.44 2.677,-3.432 0.518,-0.498 1.183,-1.006 1.674,-1.344 0.649,-0.437 1.215,-0.771 1.927,-1.105 2.563,-1.217 5.602,-1.579 8.389,-1.029 2.36,0.456 4.549,1.579 6.338,3.14 1.076,-2.083 2.665,-3.883 4.613,-5.148 2.328,-1.509 5.101,-2.252 7.849,-2.106 2.708,0.137 5.385,1.147 7.47,2.844 2.021,1.589 3.521,3.789 4.294,6.215 1.747,-1.457 3.86,-2.477 6.1,-2.863 1.18,-0.202 2.388,-0.24 3.575,-0.108 1.178,0.127 2.381,0.437 3.458,0.884 2.7,1.086 5.025,3.117 6.419,5.688 1.328,2.421 1.871,5.275 1.485,8.034 2.461,-0.569 5.085,-0.451 7.484,0.409 2.57,0.931 4.803,2.633 6.377,4.932 1.568,2.256 2.405,5.044 2.33,7.841 -0.047,2.28 -0.719,4.541 -1.893,6.539 2.234,0.724 4.293,1.998 5.907,3.742 1.972,2.087 3.228,4.946 3.543,7.799 C 3.051,0.447 3.053,1.269 3.039,1.866 3.002,2.684 2.915,3.347 2.771,4.09"
             style="fill:#e5aef8;fill-opacity:1;fill-rule:nonzero;stroke:none"
             id="path4228"
             inkscape:connector-curvature="0" />
        </g>
        <g
           id="g4230"
           transform="translate(540.3708,351.7466)">
          <path
             d="M 0,0 0,0 0.019,0.009 0,0 Z"
             style="fill:#e5aef8;fill-opacity:1;fill-rule:nonzero;stroke:none"
             id="path4232"
             inkscape:connector-curvature="0" />
        </g>
        <g
           id="g4234"
           transform="translate(594.2494,311.3178)">
          <path
             d="m 0,0 c -1.03,-1.429 -2.508,-2.51 -4.146,-3.051 l -1.063,-0.348 0.802,-0.837 c 1.194,-1.245 1.967,-2.863 2.2,-4.541 0.247,-1.692 -0.08,-3.385 -0.842,-4.908 -0.717,-1.415 -1.99,-2.731 -3.436,-3.46 -1.469,-0.757 -3.173,-1.034 -4.793,-0.804 l -1.76,0.254 0.524,-1.734 c 0.475,-1.566 0.439,-3.268 -0.038,-4.824 -0.505,-1.57 -1.448,-2.928 -2.835,-3.958 -0.615,-0.447 -1.339,-0.846 -2.174,-1.123 -0.714,-0.245 -1.579,-0.4 -2.388,-0.414 -1.648,-0.014 -3.302,0.46 -4.689,1.396 l -1.363,0.912 -0.221,-1.565 c -0.461,-3.324 -3.23,-6.22 -6.674,-6.765 -1.657,-0.287 -3.469,-0.038 -5.025,0.724 -1.565,0.757 -2.889,2.026 -3.723,3.577 l -0.419,0.781 -0.505,-0.691 c -1.039,-1.429 -2.576,-2.478 -4.271,-3 -1.692,-0.531 -3.561,-0.507 -5.239,0.071 -1.704,0.564 -3.206,1.673 -4.248,3.14 -1.027,1.472 -1.57,3.267 -1.534,5.054 l 0.011,0.681 -0.618,-0.286 c -1.68,-0.771 -3.612,-0.964 -5.411,-0.56 -1.793,0.395 -3.45,1.382 -4.618,2.797 l -0.01,0.014 c -1.09,1.317 -1.765,2.953 -1.913,4.636 -0.151,1.678 0.214,3.399 1.036,4.851 l 0.539,0.95 -1.117,0.08 c -1.723,0.127 -3.392,0.808 -4.708,1.904 -1.311,1.095 -2.245,2.604 -2.663,4.24 -0.404,1.622 -0.306,3.389 0.294,4.931 0.602,1.552 1.695,2.906 3.072,3.813 l 1.413,0.926 -1.465,0.898 c -1.41,0.86 -2.524,2.172 -3.159,3.681 -0.63,1.523 -0.794,3.173 -0.421,4.814 0.346,1.537 1.213,3.032 2.424,4.089 1.206,1.077 2.75,1.759 4.346,1.919 l 2.035,0.206 -1.078,1.759 c -0.842,1.367 -1.225,3.004 -1.091,4.597 0.124,1.598 0.769,3.145 1.793,4.344 1.035,1.232 2.442,2.092 3.98,2.501 1.537,0.399 3.189,0.305 4.677,-0.273 l 2.038,-0.79 -0.167,2.168 c -0.12,1.584 0.28,3.21 1.119,4.574 0.825,1.349 2.085,2.421 3.554,3.037 l 0.042,0.023 0.047,0.019 -0.007,-0.005 0.003,0 0.004,0.005 0.008,0 c -0.022,-0.005 -0.015,-0.005 -0.017,-0.005 l -0.085,-0.037 -0.037,-0.01 0.258,0.104 c 0.717,0.282 1.434,0.46 2.257,0.531 0.794,0.066 1.603,0.004 2.381,-0.179 1.565,-0.367 2.99,-1.246 4.059,-2.435 l 1.375,-1.523 0.788,1.847 c 0.63,1.472 1.718,2.779 3.112,3.62 0.691,0.423 1.452,0.738 2.245,0.931 0.385,0.094 0.839,0.16 1.184,0.193 0.513,0.033 0.856,0.042 1.265,0.004 1.673,-0.136 3.234,-0.761 4.543,-1.828 1.295,-1.063 2.257,-2.548 2.701,-4.203 l 0.343,-1.265 0.957,0.818 c 1.3,1.1 2.971,1.796 4.708,1.928 1.735,0.141 3.523,-0.292 5.03,-1.222 1.497,-0.912 2.743,-2.351 3.43,-4.001 0.716,-1.664 0.832,-3.568 0.399,-5.336 l -0.101,-0.404 0.402,0.085 c 1.963,0.399 4.062,0.08 5.843,-0.856 1.796,-0.926 3.216,-2.52 4.017,-4.386 1.284,-3.098 0.612,-6.892 -1.701,-9.299 l -0.217,-0.221 0.304,-0.094 c 1.753,-0.559 3.304,-1.678 4.381,-3.14 C 1.025,8.57 1.598,6.769 1.596,4.983 1.605,3.192 1.029,1.424 0,0 m -54.043,40.363 0.007,0.005 -0.047,-0.019 0.04,0.014 z M -4.062,13.459 c 1.046,1.26 1.775,2.774 2.05,4.381 0.296,1.693 0.099,3.479 -0.56,5.054 -0.777,1.932 -2.216,3.629 -4.073,4.635 -1.732,0.964 -3.78,1.331 -5.756,1.063 0.397,1.758 0.301,3.638 -0.308,5.359 -0.665,1.847 -1.895,3.455 -3.545,4.588 -1.624,1.133 -3.634,1.739 -5.644,1.683 -1.626,-0.033 -3.243,-0.503 -4.672,-1.33 -0.527,1.593 -1.436,3.065 -2.685,4.221 -1.499,1.42 -3.565,2.322 -5.624,2.548 -0.522,0.061 -1.119,0.066 -1.545,0.052 -0.59,-0.028 -1.069,-0.09 -1.6,-0.198 -1.037,-0.216 -2.043,-0.592 -2.969,-1.114 -1.335,-0.743 -2.475,-1.819 -3.352,-3.079 -1.203,0.997 -2.635,1.716 -4.149,2.087 -1.048,0.254 -2.134,0.344 -3.206,0.259 -1.048,-0.071 -2.179,-0.339 -3.196,-0.766 l 0.002,0 0.085,0.033 -0.007,-0.005 -0.04,-0.01 0.065,0.029 -0.075,-0.029 -0.016,-0.004 -0.068,-0.029 c -1.998,-0.808 -3.74,-2.27 -4.878,-4.108 -0.815,-1.302 -1.314,-2.788 -1.488,-4.311 -1.506,0.291 -3.079,0.273 -4.564,-0.113 -2.099,-0.522 -4.024,-1.753 -5.383,-3.418 -1.389,-1.673 -2.212,-3.77 -2.35,-5.918 -0.104,-1.556 0.164,-3.131 0.752,-4.57 -1.474,-0.451 -2.854,-1.212 -3.985,-2.251 -1.579,-1.448 -2.679,-3.352 -3.116,-5.486 -0.437,-2.022 -0.205,-4.283 0.677,-6.196 0.663,-1.467 1.676,-2.765 2.928,-3.761 -1.151,-1.091 -2.044,-2.445 -2.576,-3.93 -0.705,-1.979 -0.738,-4.128 -0.159,-6.126 0.589,-1.974 1.798,-3.756 3.424,-5.006 1.356,-1.044 2.983,-1.688 4.664,-1.923 -0.59,-1.504 -0.821,-3.14 -0.623,-4.729 0.228,-1.899 1.05,-3.709 2.301,-5.134 l 0.023,-0.037 0.017,-0.015 c 1.368,-1.527 3.208,-2.637 5.213,-3.041 1.798,-0.386 3.693,-0.198 5.399,0.475 0.205,-3.728 2.753,-7.212 6.295,-8.434 1.857,-0.667 3.923,-0.724 5.822,-0.174 1.653,0.475 3.138,1.439 4.321,2.694 0.883,-1.5 2.157,-2.779 3.704,-3.601 1.779,-0.964 3.841,-1.359 5.9,-1.086 1.988,0.244 3.963,1.18 5.453,2.595 1.152,1.081 2.038,2.458 2.569,3.968 1.427,-0.767 3.042,-1.199 4.675,-1.19 1.07,0.01 2.076,0.165 3.143,0.508 0.945,0.32 1.909,0.785 2.809,1.448 1.647,1.175 3.006,3.008 3.652,5.011 0.508,1.504 0.626,3.136 0.369,4.706 1.568,0.061 3.115,0.479 4.485,1.227 1.862,1.039 3.31,2.557 4.25,4.508 0.881,1.843 1.138,4.038 0.736,6.046 -0.334,1.687 -1.131,3.253 -2.24,4.536 1.49,0.776 2.773,1.918 3.669,3.31 1.083,1.673 1.612,3.685 1.506,5.641 -0.157,3.869 -2.916,7.343 -6.506,8.457"
             style="fill:#e5aef8;fill-opacity:1;fill-rule:nonzero;stroke:none"
             id="path4236"
             inkscape:connector-curvature="0" />
        </g>
        <g
           id="g4238"
           transform="translate(578.4351,313.9128)">
          <path
             d="m 0,0 -0.522,-0.277 0.463,-0.339 C 1.81,-1.965 2.614,-4.593 1.84,-6.774 1.474,-7.884 0.755,-8.852 -0.193,-9.529 c -0.954,-0.667 -2.118,-1.015 -3.276,-0.992 l -0.459,0.01 0.198,-0.419 c 1.032,-2.181 0.409,-4.992 -1.455,-6.497 l -0.024,-0.019 c -1.699,-1.429 -4.249,-1.635 -6.128,-0.55 l -0.629,0.367 -0.059,-0.752 c -0.08,-1.119 -0.527,-2.195 -1.23,-3.042 -0.709,-0.85 -1.687,-1.452 -2.745,-1.725 -1.046,-0.258 -2.191,-0.197 -3.19,0.193 -1.003,0.39 -1.875,1.095 -2.458,1.984 l -0.625,0.954 -0.593,-0.987 c -1.114,-1.848 -3.401,-2.811 -5.495,-2.308 -0.99,0.221 -1.958,0.78 -2.638,1.56 -0.698,0.785 -1.135,1.777 -1.241,2.812 l -0.138,1.377 -1.171,-0.743 c -1.768,-1.114 -4.228,-0.898 -5.773,0.456 -1.593,1.326 -2.212,3.662 -1.438,5.59 l 0.557,1.382 -1.474,-0.136 c -2.054,-0.179 -4.135,1.095 -4.913,3.013 l -0.018,0.042 c -0.219,0.536 -0.327,0.969 -0.383,1.514 -0.05,0.517 -0.012,1.044 0.103,1.551 0.233,1.02 0.804,1.956 1.582,2.656 l 1.013,0.917 -1.229,0.522 c -0.952,0.409 -1.796,1.109 -2.339,2.012 -0.553,0.917 -0.818,1.918 -0.729,3.032 0.085,1.081 0.484,2.087 1.173,2.938 0.689,0.837 1.65,1.462 2.715,1.749 l 0.858,0.23 -0.555,0.64 c -1.467,1.669 -1.706,4.348 -0.458,6.299 0.583,0.973 1.518,1.777 2.59,2.224 1.072,0.465 2.308,0.54 3.455,0.263 l 0.268,-0.066 -0.054,0.263 c -0.258,1.274 -0.059,2.633 0.555,3.789 0.599,1.166 1.629,2.088 2.842,2.609 2.019,0.823 4.454,0.358 6.012,-1.123 l 0.172,-0.165 0.075,0.231 c 0.353,1.137 1.072,2.143 2.017,2.849 0.954,0.695 2.122,1.067 3.284,1.062 2.338,0.038 4.524,-1.575 5.199,-3.723 l 0.221,-0.715 0.566,0.541 c 0.809,0.771 1.857,1.274 2.941,1.42 1.09,0.155 2.195,-0.052 3.161,-0.546 0.933,-0.46 1.773,-1.293 2.247,-2.223 0.489,-0.95 0.668,-2.05 0.517,-3.098 l -0.167,-1.171 1.155,0.348 c 2.033,0.606 4.386,-0.061 5.676,-1.857 0.287,-0.39 0.55,-0.865 0.731,-1.406 0.155,-0.456 0.254,-1.015 0.261,-1.542 0.009,-1.062 -0.294,-2.134 -0.898,-3.032 L -2.637,10.126 -1.594,9.98 C 0.555,9.679 2.426,7.893 2.778,5.66 2.966,4.588 2.807,3.418 2.315,2.412 1.824,1.396 1.006,0.541 0,0 M 3.808,5.839 C 3.65,7.131 3.044,8.415 2.125,9.383 c -0.701,0.748 -1.584,1.321 -2.56,1.669 0.494,0.926 0.774,1.97 0.764,3.028 -0.005,0.691 -0.106,1.344 -0.331,2.04 -0.205,0.62 -0.508,1.241 -0.938,1.829 -0.766,1.071 -1.961,1.955 -3.263,2.378 -0.975,0.329 -2.026,0.405 -3.041,0.24 -0.045,1.015 -0.315,2.012 -0.802,2.896 -0.674,1.208 -1.664,2.158 -2.926,2.755 -1.208,0.592 -2.633,0.742 -3.937,0.489 -1.089,-0.217 -2.102,-0.729 -2.934,-1.448 -1.114,2.129 -3.474,3.507 -5.815,3.342 -2.496,-0.108 -4.739,-1.876 -5.495,-4.188 -1.674,1.415 -4.126,1.786 -6.112,0.93 -1.257,-0.507 -2.357,-1.438 -3.008,-2.646 -0.626,-1.119 -0.868,-2.445 -0.691,-3.728 -2.363,0.55 -5.061,-0.395 -6.457,-2.501 -1.364,-1.904 -1.446,-4.617 -0.247,-6.69 -1.03,-0.343 -1.979,-0.931 -2.724,-1.735 -0.934,-0.977 -1.517,-2.327 -1.662,-3.662 -0.16,-1.316 0.136,-2.801 0.818,-3.977 0.479,-0.865 1.175,-1.598 1.986,-2.167 -0.654,-0.79 -1.121,-1.735 -1.356,-2.726 -0.162,-0.692 -0.219,-1.406 -0.153,-2.111 0.045,-0.625 0.228,-1.317 0.449,-1.885 l 0.005,-0.047 0.047,-0.118 c 0.526,-1.302 1.478,-2.44 2.675,-3.182 0.836,-0.522 1.798,-0.842 2.783,-0.96 -0.189,-0.977 -0.174,-1.993 0.075,-2.947 0.336,-1.368 1.142,-2.623 2.226,-3.502 1.866,-1.589 4.578,-1.956 6.804,-1.058 0.701,-2.285 2.654,-4.132 5.033,-4.593 1.311,-0.282 2.787,-0.136 4.031,0.442 0.947,0.428 1.786,1.081 2.437,1.885 0.708,-0.743 1.58,-1.311 2.541,-1.655 1.284,-0.456 2.685,-0.479 3.984,-0.098 1.282,0.385 2.443,1.17 3.254,2.223 0.672,0.879 1.09,1.928 1.248,3.014 2.153,-0.847 4.734,-0.409 6.424,1.123 l 0.033,0.033 0.014,0.023 c 0.97,0.884 1.673,2.06 1.932,3.338 0.247,1.166 0.127,2.393 -0.308,3.502 2.419,0.137 4.677,1.787 5.467,4.086 0.433,1.208 0.475,2.548 0.115,3.779 -0.305,1.072 -0.926,2.031 -1.737,2.802 2.097,1.222 3.397,3.737 3.035,6.234"
             style="fill:#e5aef8;fill-opacity:1;fill-rule:nonzero;stroke:none"
             id="path4240"
             inkscape:connector-curvature="0" />
        </g>
        <g
           id="g4242"
           transform="translate(561.5466,300.1623)">
          <path
             d="M 0,0 0.005,0 0,0 Z"
             style="fill:#e5aef8;fill-opacity:1;fill-rule:nonzero;stroke:none"
             id="path4244"
             inkscape:connector-curvature="0" />
        </g>
        <g
           id="g4246"
           transform="translate(569.9732,312.5682)">
          <path
             d="m 0,0 c -0.12,-0.512 -0.428,-1.044 -0.849,-1.406 -0.423,-0.366 -0.954,-0.597 -1.504,-0.648 l -1.37,-0.127 0.733,-1.18 c 0.588,-0.94 0.456,-2.257 -0.261,-3.056 -0.712,-0.841 -1.937,-1.161 -2.943,-0.747 l -1.389,0.569 0.115,-1.505 c 0.083,-1.076 -0.578,-2.153 -1.581,-2.581 l -0.015,-0.004 -0.002,-0.005 -0.033,-0.014 -0.016,-0.01 -0.031,-0.009 c -0.235,-0.094 -0.456,-0.15 -0.743,-0.183 -0.268,-0.024 -0.545,-0.005 -0.81,0.056 -0.539,0.118 -1.028,0.414 -1.404,0.818 l -0.947,1.006 -0.496,-1.218 c -0.204,-0.512 -0.571,-0.973 -1.055,-1.278 -0.238,-0.146 -0.501,-0.263 -0.778,-0.339 -0.12,-0.033 -0.33,-0.061 -0.379,-0.075 -0.164,0.005 -0.397,-0.019 -0.515,0 -1.09,0.047 -2.27,0.884 -2.599,2.097 l -0.242,0.879 -0.626,-0.578 c -0.912,-0.851 -2.439,-1.035 -3.582,-0.339 -0.099,0.057 -0.326,0.221 -0.395,0.278 -0.127,0.117 -0.289,0.244 -0.387,0.371 -0.203,0.235 -0.41,0.522 -0.534,0.837 -0.282,0.62 -0.353,1.344 -0.195,2.026 l 0.056,0.254 -0.247,-0.057 c -0.749,-0.155 -1.563,-0.061 -2.251,0.311 -0.699,0.361 -1.237,0.968 -1.552,1.697 -0.491,1.198 -0.23,2.66 0.67,3.572 l 0.148,0.151 -0.204,0.061 c -1.366,0.428 -2.313,1.796 -2.252,3.154 0.007,1.364 0.966,2.591 2.191,2.948 l 0.714,0.202 -0.54,0.588 c -0.868,0.945 -1.016,2.374 -0.414,3.417 0.084,0.179 0.167,0.264 0.214,0.339 0.113,0.127 0.242,0.315 0.345,0.39 0.179,0.15 0.419,0.343 0.682,0.461 0.515,0.254 1.107,0.357 1.671,0.277 l 1.19,-0.169 -0.351,1.17 c -0.164,0.546 -0.152,1.143 0.012,1.683 0.174,0.555 0.484,1.02 0.992,1.401 0.397,0.315 1.051,0.536 1.587,0.541 0.58,0.005 1.163,-0.151 1.669,-0.466 l 0.93,-0.578 0.125,1.016 c 0.141,1.18 1.105,2.247 2.369,2.468 1.204,0.254 2.612,-0.367 3.239,-1.533 l 0.282,-0.531 0.334,0.475 c 0.764,1.086 2.282,1.561 3.554,1.123 1.305,-0.395 2.24,-1.725 2.174,-3.088 l -0.023,-0.461 0.432,0.197 c 1.272,0.597 2.896,0.231 3.759,-0.86 l 0.004,-0.009 c 0.811,-0.992 0.908,-2.454 0.273,-3.507 L -3.422,9.651 -2.666,9.581 C -2.031,9.524 -1.429,9.256 -0.961,8.857 -0.484,8.434 -0.181,7.931 -0.009,7.277 0.106,6.76 0.071,6.078 -0.15,5.547 -0.369,4.997 -0.766,4.527 -1.255,4.217 L -2.198,3.61 -1.22,2.999 C -0.219,2.374 0.28,1.142 0,0 m -8.398,-12.392 -0.005,-0.005 0.023,0.01 c 0.005,0.005 0.01,0.005 0.015,0.005 l -0.033,-0.01 z m -0.043,-0.009 c 0.014,0.004 0.038,0.009 0.057,0.014 l -0.019,-0.01 -0.038,-0.004 z m 5.16,26.142 0,0 -0.005,0.005 0.005,-0.005 z M 0.242,3.69 C 0.611,4.109 0.931,4.565 1.112,5.082 1.396,5.933 1.42,6.769 1.142,7.667 0.903,8.42 0.383,9.2 -0.289,9.689 c -0.515,0.39 -1.124,0.602 -1.747,0.714 0.428,1.326 0.163,2.835 -0.768,3.837 l -0.035,0.028 -0.015,0.014 0.048,-0.047 c -0.562,0.616 -1.305,1.062 -2.118,1.222 -0.675,0.141 -1.378,0.052 -2.026,-0.179 -0.141,1.448 -1.143,2.783 -2.523,3.272 -1.344,0.513 -2.902,0.113 -3.946,-0.874 -0.776,1.246 -2.297,2.026 -3.839,1.824 -1.37,-0.141 -2.639,-1.1 -3.229,-2.398 -0.527,0.24 -1.107,0.386 -1.695,0.386 -0.921,-0.024 -1.732,-0.259 -2.512,-0.818 -0.68,-0.48 -1.27,-1.26 -1.54,-2.106 -0.181,-0.527 -0.23,-1.091 -0.188,-1.65 -0.538,-0.066 -1.067,-0.221 -1.547,-0.489 -0.388,-0.212 -0.728,-0.484 -1.06,-0.846 -0.167,-0.174 -0.235,-0.301 -0.357,-0.456 -0.158,-0.231 -0.278,-0.452 -0.343,-0.607 -0.654,-1.382 -0.391,-3.07 0.514,-4.212 -1.201,-0.761 -1.932,-2.172 -1.814,-3.54 0.092,-1.537 1.187,-2.877 2.585,-3.323 -0.818,-1.03 -1.06,-2.478 -0.543,-3.667 0.304,-0.757 0.875,-1.434 1.604,-1.824 0.667,-0.367 1.443,-0.527 2.207,-0.447 -0.146,-0.681 -0.127,-1.396 0.091,-2.063 0.123,-0.377 0.311,-0.72 0.557,-1.058 0.12,-0.17 0.245,-0.278 0.367,-0.423 0.205,-0.188 0.268,-0.245 0.473,-0.4 1.1,-0.813 2.67,-0.935 3.958,-0.329 0.519,-1.377 1.791,-2.487 3.392,-2.633 0.244,-0.032 0.385,-0.018 0.58,-0.028 0.317,0.01 0.47,0.038 0.71,0.075 0.435,0.085 0.863,0.245 1.253,0.461 0.463,0.254 0.86,0.597 1.196,0.997 0.449,-0.315 0.95,-0.555 1.481,-0.691 0.444,-0.108 0.91,-0.151 1.37,-0.118 0.381,0.024 0.807,0.122 1.204,0.268 l 0.049,0.009 0.073,0.024 0.017,0.009 0.002,0 -0.019,-0.009 0.033,0.014 0.028,0.01 c 1.364,0.521 2.372,1.786 2.673,3.206 1.436,-0.137 2.938,0.442 3.831,1.574 0.964,1.148 1.227,2.746 0.785,4.133 1.333,0.536 2.377,1.73 2.649,3.168 C 1.756,0.536 1.655,1.504 1.276,2.304 1.034,2.835 0.675,3.305 0.242,3.69"
             style="fill:#e5aef8;fill-opacity:1;fill-rule:nonzero;stroke:none"
             id="path4248"
             inkscape:connector-curvature="0" />
        </g>
        <g
           id="g4250"
           transform="translate(556.688,308.5912)">
          <path
             d="M 0,0 C -0.604,-0.075 -1.203,0.207 -1.526,0.724 -1.866,0.183 -2.52,-0.118 -3.183,0.019 -3.892,0.165 -4.391,0.762 -4.445,1.443 -4.988,1.128 -5.691,1.161 -6.215,1.57 c -0.082,0.066 -0.16,0.136 -0.228,0.216 -0.402,0.471 -0.482,1.119 -0.254,1.646 -0.615,-0.019 -1.215,0.319 -1.494,0.907 -0.073,0.155 -0.123,0.32 -0.142,0.494 -0.068,0.554 0.163,1.081 0.572,1.41 -0.581,0.273 -0.943,0.879 -0.908,1.528 0.043,0.705 0.555,1.316 1.27,1.457 -0.398,0.522 -0.435,1.246 -0.069,1.815 0.381,0.592 1.103,0.855 1.77,0.663 -0.112,0.676 0.233,1.377 0.887,1.687 0.611,0.287 1.309,0.155 1.772,-0.291 0.188,0.569 0.686,1.001 1.314,1.076 0.129,0.014 0.258,0.019 0.385,0 0.628,-0.08 1.119,-0.512 1.309,-1.062 0.449,0.432 1.138,0.569 1.738,0.301 C 2.372,13.121 2.743,12.42 2.628,11.715 3.267,11.908 3.954,11.677 4.349,11.141 4.755,10.596 4.772,9.825 4.344,9.252 4.995,9.12 5.517,8.584 5.604,7.888 l 0,-0.014 c 0,0 0.002,-0.005 0.002,-0.009 C 5.688,7.169 5.31,6.525 4.711,6.243 5.15,5.881 5.38,5.298 5.26,4.696 5.232,4.56 5.183,4.428 5.122,4.301 4.83,3.733 4.243,3.408 3.643,3.432 3.907,2.811 3.751,2.068 3.213,1.612 3.166,1.57 3.107,1.528 3.056,1.49 2.536,1.152 1.892,1.152 1.392,1.443 1.34,0.766 0.851,0.188 0.181,0.033 0.12,0.014 0.061,0.005 0,0"
             style="fill:#e5aef8;fill-opacity:1;fill-rule:nonzero;stroke:none"
             id="path4252"
             inkscape:connector-curvature="0" />
        </g>
        <g
           id="g4254"
           transform="translate(595.7985,88.1504)">
          <path
             d="m 0,0 -82.692,0 -12.033,84.226 106.758,0 L 0,0 Z"
             style="fill:#845700;fill-opacity:1;fill-rule:nonzero;stroke:none"
             id="path4256"
             inkscape:connector-curvature="0" />
        </g>
        <path
           d="m 618.955,165.53 -129.005,0 0,21.306 129.005,0 0,-21.306 z"
           style="fill:#face3d;fill-opacity:1;fill-rule:nonzero;stroke:none"
           id="path4258"
           inkscape:connector-curvature="0" />
      </g>
    </g>
    <g
       id="g4260"
       transform="matrix(0.76769834,0,0,-0.82932343,-193.27908,534.77002)">
      <g
         id="g4262"
         clip-path="url(#clipPath4264)">
        <g
           id="g4268"
           transform="translate(643.2773,137)">
          <path
             d="M 0,0 C -4.24,0 -6.351,3.441 -8.213,6.477 -10.03,9.44 -11.601,12 -14.722,12 -17.84,12 -19.409,9.44 -21.226,6.478 -23.087,3.441 -25.196,0 -29.434,0 -33.673,0 -35.783,3.441 -37.645,6.478 -39.462,9.44 -41.031,12 -44.15,12 -47.269,12 -48.838,9.44 -50.654,6.478 -52.516,3.441 -54.625,0 -58.862,0 -63.101,0 -65.211,3.441 -67.072,6.477 -68.89,9.44 -70.459,12 -73.578,12 -76.696,12 -78.266,9.44 -80.082,6.478 -81.943,3.441 -84.054,0 -88.292,0 -92.53,0 -94.64,3.441 -96.501,6.478 -98.318,9.44 -99.887,12 -103.005,12 c -3.119,0 -4.687,-2.56 -6.504,-5.522 C -111.37,3.441 -113.479,0 -117.717,0 c -4.239,0 -6.349,3.441 -8.21,6.478 -1.817,2.962 -3.386,5.522 -6.505,5.522 -3.118,0 -4.687,-2.56 -6.504,-5.522 -1.861,-3.037 -3.97,-6.478 -8.208,-6.478 -4.238,0 -6.347,3.441 -8.208,6.478 -1.816,2.962 -3.385,5.522 -6.502,5.522 -3.118,0 -4.687,-2.56 -6.503,-5.522 C -170.218,3.441 -172.328,0 -176.565,0 c -4.238,0 -6.347,3.441 -8.208,6.478 -1.817,2.962 -3.386,5.522 -6.504,5.522 l 0,2 c 4.238,0 6.347,-3.441 8.209,-6.478 1.816,-2.962 3.385,-5.522 6.503,-5.522 3.118,0 4.686,2.56 6.503,5.522 1.86,3.037 3.97,6.478 8.208,6.478 4.237,0 6.346,-3.441 8.207,-6.478 1.816,-2.962 3.385,-5.522 6.503,-5.522 3.118,0 4.687,2.56 6.503,5.522 1.862,3.037 3.971,6.478 8.209,6.478 4.239,0 6.349,-3.441 8.21,-6.478 1.817,-2.962 3.386,-5.522 6.505,-5.522 3.118,0 4.687,2.56 6.503,5.522 1.861,3.037 3.971,6.478 8.209,6.478 4.238,0 6.348,-3.441 8.209,-6.478 C -92.979,4.56 -91.41,2 -88.292,2 c 3.119,0 4.688,2.56 6.505,5.523 1.861,3.036 3.971,6.477 8.209,6.477 4.239,0 6.349,-3.441 8.211,-6.478 C -63.55,4.56 -61.981,2 -58.862,2 c 3.118,0 4.686,2.56 6.503,5.522 1.861,3.037 3.97,6.478 8.209,6.478 4.239,0 6.349,-3.441 8.211,-6.478 C -34.122,4.56 -32.553,2 -29.434,2 c 3.118,0 4.687,2.56 6.503,5.522 1.862,3.037 3.971,6.478 8.209,6.478 4.241,0 6.352,-3.441 8.214,-6.478 C -4.69,4.56 -3.12,2 0,2 3.121,2 4.691,4.56 6.509,7.522 8.371,10.559 10.482,14 14.723,14 l 0,-2 C 11.602,12 10.031,9.44 8.214,6.478 6.352,3.441 4.24,0 0,0"
             style="fill:#ffffff;fill-opacity:1;fill-rule:nonzero;stroke:none"
             id="path4270"
             inkscape:connector-curvature="0" />
        </g>
        <g
           id="g4272"
           transform="translate(643.2773,114)">
          <path
             d="M 0,0 C -4.24,0 -6.351,3.441 -8.213,6.477 -10.03,9.44 -11.601,12 -14.722,12 -17.84,12 -19.409,9.44 -21.226,6.478 -23.087,3.441 -25.196,0 -29.434,0 -33.673,0 -35.783,3.441 -37.645,6.478 -39.462,9.44 -41.031,12 -44.15,12 -47.269,12 -48.838,9.44 -50.654,6.478 -52.516,3.441 -54.625,0 -58.862,0 -63.101,0 -65.211,3.441 -67.072,6.477 -68.89,9.44 -70.459,12 -73.578,12 -76.696,12 -78.266,9.44 -80.082,6.478 -81.943,3.441 -84.054,0 -88.292,0 -92.53,0 -94.64,3.441 -96.501,6.478 -98.318,9.44 -99.887,12 -103.005,12 c -3.119,0 -4.687,-2.56 -6.504,-5.522 C -111.37,3.441 -113.479,0 -117.717,0 c -4.239,0 -6.349,3.441 -8.21,6.478 -1.817,2.962 -3.386,5.522 -6.505,5.522 -3.118,0 -4.687,-2.56 -6.504,-5.522 -1.861,-3.037 -3.97,-6.478 -8.208,-6.478 -4.238,0 -6.347,3.441 -8.208,6.478 -1.816,2.962 -3.385,5.522 -6.502,5.522 -3.118,0 -4.687,-2.56 -6.503,-5.522 C -170.218,3.441 -172.328,0 -176.565,0 c -4.238,0 -6.347,3.441 -8.208,6.478 -1.817,2.962 -3.386,5.522 -6.504,5.522 l 0,2 c 4.238,0 6.347,-3.441 8.209,-6.478 1.816,-2.962 3.385,-5.522 6.503,-5.522 3.118,0 4.686,2.56 6.503,5.522 1.86,3.037 3.97,6.478 8.208,6.478 4.237,0 6.346,-3.441 8.207,-6.478 1.816,-2.962 3.385,-5.522 6.503,-5.522 3.118,0 4.687,2.56 6.503,5.522 1.862,3.037 3.971,6.478 8.209,6.478 4.239,0 6.349,-3.441 8.21,-6.478 1.817,-2.962 3.386,-5.522 6.505,-5.522 3.118,0 4.687,2.56 6.503,5.522 1.861,3.037 3.971,6.478 8.209,6.478 4.238,0 6.348,-3.441 8.209,-6.478 C -92.979,4.56 -91.41,2 -88.292,2 c 3.119,0 4.688,2.56 6.505,5.523 1.861,3.036 3.971,6.477 8.209,6.477 4.239,0 6.349,-3.441 8.211,-6.478 C -63.55,4.56 -61.981,2 -58.862,2 c 3.118,0 4.686,2.56 6.503,5.522 1.861,3.037 3.97,6.478 8.209,6.478 4.239,0 6.349,-3.441 8.211,-6.478 C -34.122,4.56 -32.553,2 -29.434,2 c 3.118,0 4.687,2.56 6.503,5.522 1.862,3.037 3.971,6.478 8.209,6.478 4.241,0 6.352,-3.441 8.214,-6.478 C -4.69,4.56 -3.12,2 0,2 3.121,2 4.691,4.56 6.509,7.522 8.371,10.559 10.482,14 14.723,14 l 0,-2 C 11.602,12 10.031,9.44 8.214,6.478 6.352,3.441 4.24,0 0,0"
             style="fill:#ffffff;fill-opacity:1;fill-rule:nonzero;stroke:none"
             id="path4274"
             inkscape:connector-curvature="0" />
        </g>
        <g
           id="g4276"
           transform="translate(643.2773,91)">
          <path
             d="M 0,0 C -4.24,0 -6.351,3.441 -8.213,6.477 -10.03,9.44 -11.601,12 -14.722,12 -17.84,12 -19.409,9.44 -21.226,6.478 -23.087,3.441 -25.196,0 -29.434,0 -33.673,0 -35.783,3.441 -37.645,6.478 -39.462,9.44 -41.031,12 -44.15,12 -47.269,12 -48.838,9.44 -50.654,6.478 -52.516,3.441 -54.625,0 -58.862,0 -63.101,0 -65.211,3.441 -67.072,6.477 -68.89,9.44 -70.459,12 -73.578,12 -76.696,12 -78.266,9.44 -80.082,6.478 -81.943,3.441 -84.054,0 -88.292,0 -92.53,0 -94.64,3.441 -96.501,6.478 -98.318,9.44 -99.887,12 -103.005,12 c -3.119,0 -4.687,-2.56 -6.504,-5.522 C -111.37,3.441 -113.479,0 -117.717,0 c -4.239,0 -6.349,3.441 -8.21,6.478 -1.817,2.962 -3.386,5.522 -6.505,5.522 -3.118,0 -4.687,-2.56 -6.504,-5.522 -1.861,-3.037 -3.97,-6.478 -8.208,-6.478 -4.238,0 -6.347,3.441 -8.208,6.478 -1.816,2.962 -3.385,5.522 -6.502,5.522 -3.118,0 -4.687,-2.56 -6.503,-5.522 C -170.218,3.441 -172.328,0 -176.565,0 c -4.238,0 -6.347,3.441 -8.208,6.478 -1.817,2.962 -3.386,5.522 -6.504,5.522 l 0,2 c 4.238,0 6.347,-3.441 8.209,-6.478 1.816,-2.962 3.385,-5.522 6.503,-5.522 3.118,0 4.686,2.56 6.503,5.522 1.86,3.037 3.97,6.478 8.208,6.478 4.237,0 6.346,-3.441 8.207,-6.478 1.816,-2.962 3.385,-5.522 6.503,-5.522 3.118,0 4.687,2.56 6.503,5.522 1.862,3.037 3.971,6.478 8.209,6.478 4.239,0 6.349,-3.441 8.21,-6.478 1.817,-2.962 3.386,-5.522 6.505,-5.522 3.118,0 4.687,2.56 6.503,5.522 1.861,3.037 3.971,6.478 8.209,6.478 4.238,0 6.348,-3.441 8.209,-6.478 C -92.979,4.56 -91.41,2 -88.292,2 c 3.119,0 4.688,2.56 6.505,5.523 1.861,3.036 3.971,6.477 8.209,6.477 4.239,0 6.349,-3.441 8.211,-6.478 C -63.55,4.56 -61.981,2 -58.862,2 c 3.118,0 4.686,2.56 6.503,5.522 1.861,3.037 3.97,6.478 8.209,6.478 4.239,0 6.349,-3.441 8.211,-6.478 C -34.122,4.56 -32.553,2 -29.434,2 c 3.118,0 4.687,2.56 6.503,5.522 1.862,3.037 3.971,6.478 8.209,6.478 4.241,0 6.352,-3.441 8.214,-6.478 C -4.69,4.56 -3.12,2 0,2 3.121,2 4.691,4.56 6.509,7.522 8.371,10.559 10.482,14 14.723,14 l 0,-2 C 11.602,12 10.031,9.44 8.214,6.478 6.352,3.441 4.24,0 0,0"
             style="fill:#ffffff;fill-opacity:1;fill-rule:nonzero;stroke:none"
             id="path4278"
             inkscape:connector-curvature="0" />
        </g>
      </g>
    </g>
  </g>
</svg>
